<svg width="24" height="24" viewBox="0 0 24 24" fill="none" xmlns="http://www.w3.org/2000/svg">
<rect width="24" height="24" fill="white"/>
<path d="M9.69187 0C4.33919 0 0 4.33936 0 9.69225C0 15.0451 4.33919 19.3845 9.69187 19.3845C11.9533 19.3845 14.0329 18.61 15.6815 17.3131L22.0301 23.662C22.1372 23.7692 22.2645 23.8542 22.4045 23.9122C22.5445 23.9702 22.6945 24 22.8461 24C22.9976 24 23.1476 23.9702 23.2876 23.9122C23.4277 23.8542 23.5549 23.7692 23.662 23.662C23.7692 23.5548 23.8542 23.4276 23.9122 23.2876C23.9702 23.1476 24 22.9976 24 22.846C24 22.6945 23.9702 22.5444 23.9122 22.4044C23.8542 22.2644 23.7692 22.1372 23.662 22.03L17.3125 15.6811C18.6573 13.9749 19.3871 11.8648 19.3837 9.69225C19.3837 4.33936 15.0446 0 9.69187 0ZM2.30759 9.69225C2.30759 7.73374 3.08557 5.85544 4.4704 4.47057C5.85522 3.08569 7.73344 2.30768 9.69187 2.30768C11.6503 2.30768 13.5285 3.08569 14.9134 4.47057C16.2982 5.85544 17.0762 7.73374 17.0762 9.69225C17.0762 11.6508 16.2982 13.529 14.9134 14.9139C13.5285 16.2988 11.6503 17.0768 9.69187 17.0768C7.73344 17.0768 5.85522 16.2988 4.4704 14.9139C3.08557 13.529 2.30759 11.6508 2.30759 9.69225Z" fill="#333333"/>
</svg>
